<?xml version="1.0" encoding="UTF-8"?>
<svg width="25px" height="21px" viewBox="0 0 25 21" version="1.1" xmlns="http://www.w3.org/2000/svg" xmlns:xlink="http://www.w3.org/1999/xlink">
    <!-- Generator: sketchtool 52.6 (67491) - http://www.bohemiancoding.com/sketch -->
    <title>8877A81D-4D1A-4194-AEC1-75412529DFB7</title>
    <desc>Created with sketchtool.</desc>
    <g id="PMR-V2" stroke="none" stroke-width="1" fill="none" fill-rule="evenodd">
        <g id="Prefered-store-update" transform="translate(-165.000000, -372.000000)" fill="#007066">
            <g id="Group-23" transform="translate(165.000000, 321.000000)">
                <g id="Group" transform="translate(0.000000, 51.000000)">
                    <path d="M0.382421875,6.25994444 C0.88671875,6.26888889 1.36328125,6.27744444 1.82929688,6.24477778 C1.86601562,6.24205556 1.98242188,6.20316667 2.084375,6.12538889 C2.2109375,6.02855556 2.34609375,5.8765 2.50234375,5.70072222 C2.78007813,5.38844444 3.20429688,5.24611111 3.61210938,5.327 C4.01953125,5.40788889 4.35664062,5.70111111 4.4921875,6.09194444 C4.77226563,6.902 5.48046875,8.97788889 5.83476563,10.0582222 C5.86054687,10.1371667 5.88320312,10.1815 5.896875,10.2036667 C5.89921875,10.2040556 5.90195312,10.2044444 5.90507813,10.2044444 C5.91914062,10.2056111 5.93046875,10.2063889 5.94023438,10.2067778 C5.95976563,10.1811111 5.99140625,10.1340556 6.03242188,10.0523889 C6.31484375,9.49316667 6.5953125,8.93277778 6.87617187,8.37238889 C7.04765625,8.02938889 7.21953125,7.68638889 7.39179688,7.34377778 C7.73125,6.66827778 8.07070312,5.99355556 8.4203125,5.29938889 L8.50898437,5.12322222 C8.73789062,4.66666667 9.2171875,4.39444444 9.72890625,4.42944444 C10.2402344,4.46444444 10.6773437,4.79966667 10.8417969,5.28305556 C11.4027344,6.93 12.934375,11.4640556 13.7539062,13.9292222 C13.8,14.0680556 13.8351562,14.1337778 13.853125,14.1625556 C13.8546875,14.1629444 13.8566406,14.1629444 13.8585937,14.1633333 C13.8652344,14.1641111 13.8714844,14.1645 13.8769531,14.1648889 C13.9039062,14.1298889 13.9496094,14.0622222 14.0117187,13.9385556 L14.6578125,12.656 C15.5707031,10.8441667 16.5148437,8.9705 17.4320312,7.12405556 C17.7265625,6.531 18.2074219,6.23661111 18.8644531,6.24905556 C19.2621094,6.25683333 23.0867187,6.25916667 24.7886719,6.25994444 C24.7460937,5.98927778 24.6945313,5.71588889 24.6300781,5.43861111 C23.5238281,0.673555556 19.5308594,-0.701166667 15.8210937,0.4515 C14.903125,0.737722222 14.0585938,1.27983333 13.1964844,1.7325 C12.9574219,1.85772222 12.7265625,1.92461111 12.5,1.92344444 C12.2734375,1.92461111 12.0425781,1.85733333 11.8035156,1.73211111 C10.9414062,1.27944444 10.0964844,0.737333333 9.17890625,0.451111111 C5.46914062,-0.701166667 1.47617187,0.673555556 0.369921875,5.43861111 C0.305859375,5.71511111 0.254296875,5.98772222 0.21171875,6.25722222 C0.26875,6.25838889 0.325390625,6.25916667 0.382421875,6.25994444 Z" id="Path"></path>
                    <path d="M19.04375,8.14216667 C18.1523438,9.93494444 17.2386719,11.7483333 16.3542969,13.5033889 L15.7085938,14.7851667 C15.5453125,15.1095 15.0691406,16.0552778 13.9007813,16.0552778 C13.8238281,16.0552778 13.7441406,16.051 13.6609375,16.0424444 C12.8332031,15.9561111 12.2582031,15.4451111 11.9519531,14.5230556 C11.3113281,12.5953333 10.2339844,9.40022222 9.528125,7.31538889 C9.38125,7.60744444 9.23476563,7.89833333 9.08867188,8.18922222 C8.91679688,8.53105556 8.74570313,8.87327778 8.57421875,9.2155 C8.29257813,9.77783333 8.0109375,10.3405556 7.72734375,10.9017222 C7.28789063,11.7712778 6.6140625,12.1695 5.72539063,12.0855 C5.15,12.0310556 4.38867188,11.7370556 4.03046875,10.6446667 C3.78828125,9.90616667 3.37851563,8.69633333 3.05625,7.7525 C2.71523438,7.96872222 2.32695313,8.10405556 1.96328125,8.12972222 C1.41289063,8.16861111 0.871484375,8.15888889 0.348046875,8.14916667 C0.262109375,8.14761111 0.17578125,8.14644444 0.08984375,8.14488889 C0.175,11.0856667 1.6234375,13.5675556 4.16953125,15.5446667 C5.975,16.9450556 7.98632813,18.081 9.9078125,19.3320556 C10.6324219,19.8061111 11.3746094,20.2583889 12.0820313,20.7581111 C12.2328125,20.8646667 12.3578125,20.9183333 12.484375,20.9265 L12.484375,20.9331111 C12.4894531,20.9331111 12.4945313,20.93 12.4996094,20.9296111 C12.5046875,20.9296111 12.5097656,20.9331111 12.5148438,20.9331111 L12.5148438,20.9265 C12.6414063,20.9183333 12.7664063,20.8646667 12.9171875,20.7581111 C13.625,20.2583889 14.3667969,19.8061111 15.0914063,19.3320556 C17.0128906,18.081 19.0242188,16.9454444 20.8296875,15.5446667 C23.3746094,13.5687222 24.8226563,11.0883889 24.9089844,8.14955556 C23.3039063,8.14916667 19.4042969,8.14761111 19.04375,8.14216667 Z" id="Path"></path>
                </g>
            </g>
        </g>
    </g>
</svg>